700 0 3 0           
30 Autodesk Translation Framework 20 ASM 227.1.0.65535 NT 24 Mon Jun 20 22:29:53 2022 
1 9.999999999999999547e-07 1.000000000000000036e-10 
body $3 -1 $-1 $4 $-1 $5 #
body $6 -1 $-1 $7 $-1 $8 #
body $9 -1 $-1 $10 $-1 $11 #
rgb_color-st-attrib $-1 -1 $12 $-1 $0 0.7490196078431372584 0.7490196078431372584 0.7490196078431372584 #
lump $-1 -1 $-1 $-1 $13 $0 #
transform $-1 -1 1 0 0 0 1 0 0 0 1 0 0 0 1 no_rotate no_reflect no_shear #
rgb_color-st-attrib $-1 -1 $14 $-1 $1 0.7490196078431372584 0.7490196078431372584 0.7490196078431372584 #
lump $-1 -1 $-1 $-1 $15 $1 #
transform $-1 -1 1 0 0 0 1 0 0 0 1 0 0 0 1 no_rotate no_reflect no_shear #
rgb_color-st-attrib $-1 -1 $16 $-1 $2 0.7490196078431372584 0.7490196078431372584 0.7490196078431372584 #
lump $-1 -1 $-1 $-1 $17 $2 #
transform $-1 -1 1 0 0 0 1 0 0 0 1 0 0 0 1 no_rotate no_reflect no_shear #
DXID-attrib $-1 -1 $-1 $3 $0 @10 ASM ENTITY @95 PART3.IPT|:|377A0D09F70E8830A631307E5F3B3088B8840D57|:|DA4B9237BACCCDF19C0760CAB7AEC4A8359010B0 #
shell $-1 -1 $-1 $-1 $-1 $18 $-1 $4 #
DXID-attrib $-1 -1 $-1 $6 $1 @10 ASM ENTITY @94 BASE.IPT|:|F4178FD105102735D6E8EC7456C92886DCF6A15D|:|DA4B9237BACCCDF19C0760CAB7AEC4A8359010B0 #
shell $-1 -1 $-1 $-1 $-1 $19 $-1 $7 #
DXID-attrib $-1 -1 $-1 $9 $2 @10 ASM ENTITY @94 TAPA.IPT|:|BE21D2C31E4C1966C1FEA2041028DFCADF9F1F03|:|DA4B9237BACCCDF19C0760CAB7AEC4A8359010B0 #
shell $-1 -1 $-1 $-1 $-1 $20 $-1 $10 #
face $21 -1 $-1 $22 $23 $13 $-1 $24 forward single #
face $25 -1 $-1 $26 $27 $15 $-1 $28 forward single #
face $29 -1 $-1 $30 $31 $17 $-1 $32 forward single #
DXID-attrib $-1 -1 $-1 $-1 $18 @10 ASM ENTITY @36 a42aa29e-cf16-4168-a30e-a63860386878 #
face $33 -1 $-1 $34 $35 $13 $-1 $36 forward single #
loop $-1 -1 $-1 $-1 $37 $18 #
plane-surface $-1 -1 $-1 -60.49730854872930053 79.19233845410083461 35.05359521835939063 -0.02077041258244112856 1.534794792496104419e-38 -0.999784271711230188 9.997842717112302324 1.415340472798810739e-30 -0.2077041258244112787 reverse_v I I I I #
DXID-attrib $-1 -1 $-1 $-1 $19 @10 ASM ENTITY @36 7bfb5814-9882-4093-8ed7-acf10a2cf21c #
face $38 -1 $-1 $39 $40 $15 $-1 $41 forward single #
loop $-1 -1 $-1 $42 $43 $19 #
cone-surface $-1 -1 $-1 -60.68424226197127069 -29.80766154589918315 26.05553677295832316 0 -1 0 -15 0 0 1 I I 0.7071067811865473507 0.7071067811865475727 15 forward I I I I #
DXID-attrib $-1 -1 $-1 $-1 $20 @10 ASM ENTITY @36 df187d1e-c280-4124-b0fe-db3f9d1db2dd #
face $44 -1 $-1 $45 $46 $17 $-1 $47 forward single #
loop $-1 -1 $-1 $48 $49 $20 #
cone-surface $-1 -1 $-1 -60.6842422619712778 87.19233845410086303 26.05553677295833381 1.586304803692749488e-16 -1 2.227963800170432436e-16 -11.86241309571954616 -2.251903121740137423e-16 7.435264322571284445 1 I I 0 -1 14 forward I I I I #
DXID-attrib $-1 -1 $-1 $-1 $22 @10 ASM ENTITY @36 b80a4d83-47ae-41f3-a9bb-6ede19a9f5cd #
face $50 -1 $-1 $51 $52 $13 $-1 $24 forward single #
loop $-1 -1 $-1 $53 $54 $22 #
cone-surface $-1 -1 $-1 -60.49730854872930053 79.19233845410083461 35.05359521835939063 -0.02077041258244112856 1.534794792496104419e-38 -0.999784271711230188 3.249298883061500831 4.599856536596139282e-31 -0.06750384089293373635 1 I I -0 1 3.250000000000002665 reversed I I I I #
coedge $-1 -1 $-1 $55 $55 $56 $57 reversed $23 $-1 #
DXID-attrib $-1 -1 $-1 $-1 $26 @10 ASM ENTITY @36 2182638a-e44f-4c36-a567-0cd4bd58b698 #
face $58 -1 $-1 $59 $60 $15 $-1 $61 forward single #
loop $-1 -1 $-1 $62 $63 $26 #
cone-surface $-1 -1 $-1 -60.68424226197127069 -30.80766154589918315 26.05553677295832316 0 1 0 14.00000000000000178 0 0 1 I I 0 1 14.00000000000000178 forward I I I I #
loop $-1 -1 $-1 $-1 $64 $19 #
coedge $-1 -1 $-1 $43 $43 $65 $66 forward $27 $-1 #
DXID-attrib $-1 -1 $-1 $-1 $30 @10 ASM ENTITY @36 0d31e6e6-bb32-4a58-a0c9-3ecc08ed8574 #
face $67 -1 $-1 $68 $69 $17 $-1 $70 forward single #
loop $-1 -1 $-1 $71 $72 $30 #
plane-surface $-1 -1 $-1 -60.68424226197127069 67.19233845410086303 26.05553677295834092 1.586304803692749488e-16 -1 2.227963800170432436e-16 -5.310903087550917334 -2.730258747967926399e-15 -8.473152211228248021 forward_v I I I I #
loop $-1 -1 $-1 $-1 $73 $20 #
coedge $-1 -1 $-1 $49 $49 $74 $75 reversed $31 $-1 #
DXID-attrib $-1 -1 $-1 $-1 $34 @10 ASM ENTITY @36 42335ce6-8df0-4cea-bdec-a0932e4447a7 #
face $76 -1 $-1 $77 $78 $13 $-1 $79 reversed single #
loop $-1 -1 $-1 $-1 $56 $34 #
loop $-1 -1 $-1 $-1 $80 $22 #
coedge $-1 -1 $-1 $54 $54 $81 $82 forward $35 $-1 #
coedge $-1 -1 $-1 $37 $37 $83 $84 reversed $23 $-1 #
coedge $-1 -1 $-1 $85 $85 $86 $57 forward $52 $-1 #
edge $-1 -1 $-1 $87 3.674999999999999822 $88 4.325000000000000178 $89 $90 forward @7 unknown #
DXID-attrib $-1 -1 $-1 $-1 $39 @10 ASM ENTITY @36 4d28110f-c696-42bf-b448-b9a441168634 #
face $91 -1 $-1 $92 $93 $15 $-1 $94 reversed single #
loop $-1 -1 $-1 $95 $96 $39 #
plane-surface $-1 -1 $-1 -60.68424226197127069 -30.80766154589918315 26.05553677295832316 0 1 0 0 0 10 forward_v I I I I #
loop $-1 -1 $-1 $-1 $65 $26 #
coedge $-1 -1 $-1 $63 $63 $97 $98 reversed $40 $-1 #
coedge $-1 -1 $-1 $64 $64 $99 $100 forward $42 $-1 #
coedge $-1 -1 $-1 $65 $65 $43 $66 reversed $62 $-1 #
edge $-1 -1 $-1 $101 -3.141592653589793116 $101 3.141592653589793116 $65 $102 forward @7 unknown #
DXID-attrib $-1 -1 $-1 $-1 $45 @10 ASM ENTITY @36 8f329430-4c50-466a-b5b2-9da27f9fddd5 #
face $103 -1 $-1 $104 $105 $17 $-1 $106 forward single #
loop $-1 -1 $-1 $107 $108 $45 #
cone-surface $-1 -1 $-1 -60.6842422619712778 92.19233845410086303 26.05553677295833381 1.586304803692749488e-16 -1 2.227963800170432436e-16 8.049494600666836419 1.528077118323664856e-16 -5.045357933173372444 1 I I 0 -1 9.5 forward I I I I #
loop $-1 -1 $-1 $-1 $74 $30 #
coedge $-1 -1 $-1 $72 $72 $109 $110 forward $46 $-1 #
coedge $-1 -1 $-1 $73 $73 $111 $112 reversed $48 $-1 #
coedge $-1 -1 $-1 $74 $74 $49 $75 forward $71 $-1 #
edge $113 -1 $-1 $114 -3.141592653589793116 $114 3.141592653589793116 $49 $115 forward @7 unknown #
DXID-attrib $-1 -1 $-1 $-1 $51 @10 ASM ENTITY @36 87d0e847-ed7d-424f-9fcf-ec8916f2c529 #
face $116 -1 $-1 $117 $118 $13 $-1 $119 forward single #
loop $-1 -1 $-1 $-1 $81 $51 #
plane-surface $-1 -1 $-1 -60.43499731098197714 79.19233845410083461 38.05294803349308808 -0.02077041258244112856 1.534794792496104419e-38 -0.999784271711230188 9.997842717112302324 1.415340472798810739e-30 -0.2077041258244112787 reverse_v I I I I #
coedge $-1 -1 $-1 $83 $83 $85 $120 forward $53 $-1 #
coedge $-1 -1 $-1 $81 $81 $54 $82 reversed $78 $-1 #
edge $121 -1 $-1 $122 -6.283185307179586232 $122 -0 $54 $123 forward @7 unknown #
coedge $-1 -1 $-1 $80 $80 $55 $84 forward $53 $-1 #
edge $124 -1 $-1 $88 1.570796326794896558 $87 4.712388980384689674 $55 $125 forward @7 unknown #
coedge $-1 -1 $-1 $56 $56 $80 $120 reversed $52 $-1 #
coedge $-1 -1 $-1 $89 $89 $89 $57 reversed $126 $-1 #
vertex $-1 -1 $-1 $57 $127 #
vertex $-1 -1 $-1 $57 $128 #
coedge $-1 -1 $-1 $86 $86 $37 $57 forward $126 $-1 #
straight-curve $-1 -1 $-1 -60.49730854872930053 39.19233845410083461 35.05359521835939063 -1.415035140632755502e-30 10 2.939735901102798704e-32 I I #
DXID-attrib $-1 -1 $-1 $-1 $59 @10 ASM ENTITY @36 729b8212-d0de-4dc6-8790-43470bc9741a #
face $129 -1 $-1 $130 $131 $15 $-1 $132 reversed single #
loop $-1 -1 $-1 $-1 $133 $59 #
plane-surface $-1 -1 $-1 -57.18424226197127069 87.1923384541008204 34.88729763928617444 1 0 0 0 0 10 forward_v I I I I #
loop $-1 -1 $-1 $134 $135 $39 #
coedge $-1 -1 $-1 $96 $96 $136 $137 forward $60 $-1 #
coedge $-1 -1 $-1 $97 $97 $63 $98 forward $138 $-1 #
edge $139 -1 $-1 $140 0 $140 6.283185307179586232 $63 $141 forward @7 unknown #
coedge $-1 -1 $-1 $99 $99 $64 $100 reversed $142 $-1 #
edge $-1 -1 $-1 $143 -3.141592653589793116 $143 3.141592653589793116 $99 $144 forward @7 unknown #
vertex $-1 -1 $-1 $66 $145 #
ellipse-curve $-1 -1 $-1 -60.68424226197127069 -28.80766154589918315 26.05553677295832316 -0 -1 -0 -14.00000000000000178 -0 -0 1 I I #
DXID-attrib $-1 -1 $-1 $-1 $68 @10 ASM ENTITY @36 b437609f-5acf-48be-ab2e-36d527d6a3fd #
face $146 -1 $-1 $147 $148 $17 $-1 $149 forward single #
loop $-1 -1 $-1 $150 $109 $68 #
cone-surface $-1 -1 $-1 -60.6842422619712778 92.19233845410086303 26.05553677295833381 1.586304803692749488e-16 -1 2.227963800170432436e-16 -13.55704353796519612 -2.573603567703014339e-16 8.497444940081468445 1 I I 0 1 16 forward I I I I #
loop $-1 -1 $-1 $-1 $151 $45 #
coedge $-1 -1 $-1 $108 $108 $152 $153 reversed $69 $-1 #
coedge $-1 -1 $-1 $109 $109 $72 $110 reversed $105 $-1 #
edge $154 -1 $-1 $155 0 $155 6.283185307179586232 $109 $156 forward @7 unknown #
coedge $-1 -1 $-1 $111 $111 $73 $112 forward $148 $-1 #
edge $-1 -1 $-1 $157 -3.141592653589793116 $157 3.141592653589793116 $111 $158 forward @7 unknown #
DXID-attrib $-1 -1 $-1 $-1 $75 @10 ASM ENTITY @36 a21b4ef1-5b3d-44b7-947b-618a64712594 #
vertex $-1 -1 $-1 $75 $159 #
ellipse-curve $-1 -1 $-1 -60.68424226197127069 67.19233845410086303 26.05553677295834092 -1.586304803692749488e-16 1 -2.227963800170432436e-16 -11.86241309571954616 -2.251903121740137423e-16 7.435264322571284445 1 I I #
DXID-attrib $-1 -1 $-1 $-1 $77 @10 ASM ENTITY @36 18c64e4b-f14c-451b-b0ef-a07de95f241c #
face $160 -1 $-1 $161 $162 $13 $-1 $163 forward single #
loop $-1 -1 $-1 $-1 $164 $77 #
plane-surface $-1 -1 $-1 -60.87117597521324086 79.19233845410083461 17.05747832755725213 0.02077041258244112856 -1.534794792496104419e-38 0.999784271711230188 9.997842717112302324 1.415340472798810739e-30 -0.2077041258244112787 forward_v I I I I #
edge $165 -1 $-1 $87 -1.570796326794896558 $88 1.570796326794896558 $85 $125 forward @7 unknown #
DXID-attrib $-1 -1 $-1 $-1 $82 @10 ASM ENTITY @36 057004ee-4e95-4b31-8ea4-75c9c4e99631 #
vertex $-1 -1 $-1 $82 $166 #
ellipse-curve $-1 -1 $-1 -60.43499731098197714 79.19233845410083461 38.05294803349308808 -0.02077041258244112856 1.534794792496104419e-38 -0.999784271711230188 3.249298883061500831 4.599856536596139282e-31 -0.06750384089293373635 1 I I #
DXID-attrib $-1 -1 $-1 $-1 $84 @10 ASM ENTITY @36 c01942a7-ca99-403b-ba50-a2169da3ecde #
ellipse-curve $-1 -1 $-1 -60.49730854872930053 79.19233845410083461 35.05359521835939063 0.02077041258244112856 -1.534794792496104419e-38 0.999784271711230188 3.249298883061500831 4.599856536596139282e-31 -0.06750384089293373635 1 I I #
loop $-1 -1 $-1 $167 $89 $168 #
point $-1 -1 $-1 -60.49730854872930053 75.94233845410083461 35.05359521835939063 #
point $-1 -1 $-1 -60.49730854872930053 82.44233845410083461 35.05359521835939063 #
DXID-attrib $-1 -1 $-1 $-1 $92 @10 ASM ENTITY @36 8ed15dd7-f2a4-4666-9bfc-45ad041bb42c #
face $169 -1 $-1 $170 $171 $15 $-1 $172 reversed single #
loop $-1 -1 $-1 $-1 $173 $92 #
plane-surface $-1 -1 $-1 -64.1842422619712778 87.1923384541008204 38.0555367729583196 -1 -0 -1.22647957500740488e-15 1.226479575007404801e-14 0 -10 forward_v I I I I #
coedge $-1 -1 $-1 $174 $175 $176 $177 reversed $93 $-1 #
loop $-1 -1 $-1 $178 $179 $39 #
coedge $-1 -1 $-1 $135 $135 $180 $181 forward $95 $-1 #
coedge $-1 -1 $-1 $136 $136 $96 $137 reversed $182 $-1 #
edge $183 -1 $-1 $184 0 $184 6.283185307179586232 $96 $185 forward @7 unknown #
loop $-1 -1 $-1 $-1 $97 $186 #
DXID-attrib $-1 -1 $-1 $-1 $98 @10 ASM ENTITY @36 498b1125-b847-4458-a1cc-c7239b5723cd #
vertex $-1 -1 $-1 $98 $187 #
ellipse-curve $-1 -1 $-1 -60.68424226197127069 87.1923384541008204 26.05553677295832316 0 1 0 14.00000000000000178 0 0 1 I I #
loop $-1 -1 $-1 $-1 $99 $39 #
vertex $-1 -1 $-1 $100 $188 #
ellipse-curve $-1 -1 $-1 -60.68424226197127069 -30.80766154589918315 26.05553677295832316 0 1 0 -16 0 0 1 I I #
point $-1 -1 $-1 -46.68424226197127069 -28.80766154589918315 26.05553677295832316 #
DXID-attrib $-1 -1 $-1 $-1 $104 @10 ASM ENTITY @36 994b4a44-81d4-45ec-8f16-078abfdb940b #
face $189 -1 $-1 $-1 $190 $17 $-1 $191 reversed single #
loop $-1 -1 $-1 $192 $111 $104 #
plane-surface $-1 -1 $-1 -60.6842422619712778 87.19233845410086303 26.05553677295833381 1.586304803692749488e-16 -1 2.227963800170432436e-16 -5.310903087550917334 -2.730258747967926399e-15 -8.473152211228248021 forward_v I I I I #
loop $-1 -1 $-1 $-1 $193 $68 #
coedge $-1 -1 $-1 $151 $151 $194 $195 forward $107 $-1 #
coedge $-1 -1 $-1 $152 $152 $108 $153 forward $192 $-1 #
edge $196 -1 $-1 $197 -3.141592653589793116 $197 3.141592653589793116 $108 $198 forward @7 unknown #
DXID-attrib $-1 -1 $-1 $-1 $110 @10 ASM ENTITY @36 2f414331-8a4a-4cfc-b9bf-231c33fe94f0 #
vertex $-1 -1 $-1 $110 $199 #
ellipse-curve $-1 -1 $-1 -60.68424226197127069 67.19233845410086303 26.05553677295834092 1.586304803692749488e-16 -1 2.227963800170432436e-16 13.55704353796519612 2.573603567703014339e-16 -8.497444940081468445 1 I I #
vertex $-1 -1 $-1 $112 $200 #
ellipse-curve $-1 -1 $-1 -60.6842422619712778 87.19233845410086303 26.05553677295833381 1.586304803692749488e-16 -1 2.227963800170432436e-16 -11.86241309571954616 -2.251903121740137423e-16 7.435264322571284445 1 I I #
point $-1 -1 $-1 -48.82182916625173164 67.19233845410086303 18.62027245038705558 #
DXID-attrib $-1 -1 $-1 $-1 $117 @10 ASM ENTITY @36 ee7aa9f0-bc4e-4bcf-a757-525f1d127e55 #
face $201 -1 $-1 $202 $203 $13 $-1 $119 forward single #
loop $-1 -1 $-1 $204 $205 $117 #
cone-surface $-1 -1 $-1 -60.87117597521324086 79.19233845410083461 17.05747832755725213 -0.02077041258244112856 1.534794792496104419e-38 -0.999784271711230188 3.249298883061500831 4.599856536596139282e-31 -0.06750384089293373635 1 I I 0 1 3.250000000000002665 forward I I I I #
coedge $-1 -1 $-1 $206 $206 $207 $208 reversed $118 $-1 #
DXID-attrib $-1 -1 $-1 $-1 $120 @10 ASM ENTITY @36 ac739060-2eb7-4375-bb00-802938daf27d #
point $-1 -1 $-1 -57.18569842792047808 79.19233845410083461 37.98544419260015559 #
loop $-1 -1 $-1 $209 $210 $168 #
face $211 -1 $-1 $212 $126 $13 $-1 $213 forward single #
DXID-attrib $-1 -1 $-1 $-1 $130 @10 ASM ENTITY @36 dd070eb7-cce4-457b-8d43-ee05e2302771 #
face $214 -1 $-1 $215 $216 $15 $-1 $217 forward single #
loop $-1 -1 $-1 $-1 $218 $130 #
cone-surface $-1 -1 $-1 -60.68424226197127069 87.1923384541008204 26.05553677295832316 0 -1 0 -3.500000000000005329 0 12 1 I I 0 1 12.5 forward I I I I #
coedge $-1 -1 $-1 $219 $220 $221 $222 reversed $131 $-1 #
coedge $-1 -1 $-1 $223 $133 $224 $225 reversed $93 $-1 #
coedge $-1 -1 $-1 $133 $223 $226 $227 reversed $93 $-1 #
coedge $-1 -1 $-1 $228 $229 $133 $177 forward $230 $-1 #
edge $-1 -1 $-1 $231 0.4415880433163924534 $232 0.7584119566836103887 $176 $233 forward @7 unknown #
loop $-1 -1 $-1 $234 $235 $39 #
coedge $-1 -1 $-1 $179 $179 $236 $237 forward $134 $-1 #
coedge $-1 -1 $-1 $180 $180 $135 $181 reversed $238 $-1 #
edge $239 -1 $-1 $240 -3.141592653589793116 $240 3.141592653589793116 $135 $241 forward @7 unknown #
loop $-1 -1 $-1 $-1 $136 $242 #
DXID-attrib $-1 -1 $-1 $-1 $137 @10 ASM ENTITY @36 33e6a652-331f-48d0-b81c-fe2e24e8a6c8 #
vertex $-1 -1 $-1 $137 $243 #
ellipse-curve $-1 -1 $-1 -60.68424226197127069 -30.80766154589918315 26.05553677295832316 0 1 0 -25 0 0 1 I I #
face $244 -1 $-1 $245 $230 $15 $-1 $246 forward single #
point $-1 -1 $-1 -46.68424226197127069 87.1923384541008204 26.05553677295832316 #
point $-1 -1 $-1 -44.68424226197127069 -30.80766154589918315 26.0555367729583196 #
DXID-attrib $-1 -1 $-1 $-1 $147 @10 ASM ENTITY @36 242aff2a-07d3-4c6b-b02e-977175073ace #
loop $-1 -1 $-1 $247 $248 $147 #
plane-surface $-1 -1 $-1 -60.6842422619712778 92.19233845410086303 26.05553677295833381 1.586304803692749488e-16 -1 2.227963800170432436e-16 -5.310903087550917334 -2.730258747967926399e-15 -8.473152211228248021 forward_v I I I I #
loop $-1 -1 $-1 $-1 $152 $104 #
coedge $-1 -1 $-1 $193 $193 $248 $249 forward $150 $-1 #
coedge $-1 -1 $-1 $194 $194 $151 $195 reversed $247 $-1 #
edge $250 -1 $-1 $251 -3.141592653589793116 $251 3.141592653589793116 $151 $252 forward @7 unknown #
DXID-attrib $-1 -1 $-1 $-1 $153 @10 ASM ENTITY @36 c83c43d3-2086-438a-836a-2b8ff93f5025 #
vertex $-1 -1 $-1 $153 $253 #
ellipse-curve $-1 -1 $-1 -60.6842422619712778 87.19233845410086303 26.05553677295833381 -1.586304803692749488e-16 1 -2.227963800170432436e-16 8.049494600666836419 1.528077118323664856e-16 -5.045357933173372444 1 I I #
point $-1 -1 $-1 -47.12719872400607812 67.19233845410086303 17.55809183287686892 #
point $-1 -1 $-1 -48.82182916625173164 87.19233845410086303 18.62027245038705203 #
DXID-attrib $-1 -1 $-1 $-1 $161 @10 ASM ENTITY @36 d63bd603-f252-4868-8f7d-623903cf96bb #
face $254 -1 $-1 $255 $256 $13 $-1 $257 reversed single #
loop $-1 -1 $-1 $-1 $207 $161 #
loop $-1 -1 $-1 $-1 $258 $117 #
coedge $-1 -1 $-1 $205 $205 $259 $260 reversed $162 $-1 #
coedge $-1 -1 $-1 $164 $164 $258 $261 forward $118 $-1 #
coedge $-1 -1 $-1 $262 $262 $263 $208 forward $203 $-1 #
edge $-1 -1 $-1 $264 3.674999999999999822 $265 4.325000000000000178 $210 $266 forward @7 unknown #
loop $-1 -1 $-1 $267 $268 $168 #
coedge $-1 -1 $-1 $263 $263 $164 $208 forward $167 $-1 #
DXID-attrib $-1 -1 $-1 $-1 $168 @10 ASM ENTITY @36 f20709d8-092a-4926-9c42-725e7f8844db #
face $269 -1 $-1 $270 $271 $13 $-1 $272 forward single #
cone-surface $-1 -1 $-1 -60.68424226197127069 39.19233845410083461 26.05553677295832316 -1.415035140632755502e-31 1 2.939735901102798636e-33 -8.998058445401071026 -1.273806425518929665e-30 0.1869337132419701675 1 I I 0 1 9 forward I I I I #
DXID-attrib $-1 -1 $-1 $-1 $170 @10 ASM ENTITY @36 a660a7c2-a124-4d7f-a275-a5bed6e17ca8 #
face $273 -1 $-1 $274 $275 $15 $-1 $276 reversed single #
loop $-1 -1 $-1 $-1 $277 $170 #
plane-surface $-1 -1 $-1 -60.68424226197127069 42.1923384541008204 36.72141720612224702 0 1 0 0 0 10 forward_v I I I I #
coedge $-1 -1 $-1 $226 $278 $228 $279 reversed $171 $-1 #
coedge $-1 -1 $-1 $280 $173 $278 $281 forward $131 $-1 #
coedge $-1 -1 $-1 $173 $280 $282 $283 reversed $131 $-1 #
coedge $-1 -1 $-1 $284 $228 $173 $222 forward $230 $-1 #
edge $-1 -1 $-1 $285 -0.6000000000000000888 $286 -0.2831760866327850401 $221 $287 forward @7 unknown #
coedge $-1 -1 $-1 $175 $174 $288 $289 forward $93 $-1 #
coedge $-1 -1 $-1 $290 $291 $174 $225 forward $292 $-1 #
edge $-1 -1 $-1 $293 7.300000000000000711 $231 11.80000000000000071 $224 $294 forward @7 unknown #
coedge $-1 -1 $-1 $295 $218 $175 $227 forward $171 $-1 #
edge $296 -1 $-1 $232 0 $297 4.5 $226 $298 forward @7 unknown #
coedge $-1 -1 $-1 $221 $176 $218 $279 forward $230 $-1 #
coedge $-1 -1 $-1 $176 $299 $290 $300 forward $230 $-1 #
loop $-1 -1 $-1 $138 $221 $186 #
vertex $-1 -1 $-1 $177 $301 #
vertex $-1 -1 $-1 $177 $302 #
straight-curve $-1 -1 $-1 -57.18424226197127069 87.1923384541008204 30.47141720612224702 0 0 10 I I #
loop $-1 -1 $-1 $142 $303 $39 #
coedge $-1 -1 $-1 $235 $235 $304 $305 forward $178 $-1 #
coedge $-1 -1 $-1 $236 $236 $179 $237 reversed $306 $-1 #
edge $307 -1 $-1 $308 -3.141592653589793116 $308 3.141592653589793116 $179 $309 forward @7 unknown #
loop $-1 -1 $-1 $-1 $180 $310 #
DXID-attrib $-1 -1 $-1 $-1 $181 @10 ASM ENTITY @36 73797689-b0aa-401d-b868-5f352bd413b0 #
vertex $-1 -1 $-1 $181 $311 #
ellipse-curve $-1 -1 $-1 -40.68424226197127069 -30.80766154589918315 26.05553677295832316 0 -1 0 3.000000000000001776 0 0 1 I I #
face $312 -1 $-1 $313 $314 $15 $-1 $315 forward single #
point $-1 -1 $-1 -85.68424226197126359 -30.80766154589918315 26.05553677295832316 #
DXID-attrib $-1 -1 $-1 $-1 $186 @10 ASM ENTITY @36 7ad4ed01-969e-4bb0-afe5-dfc1a155e177 #
face $316 -1 $-1 $317 $318 $15 $-1 $319 forward single #
plane-surface $-1 -1 $-1 -60.68424226197127069 87.1923384541008204 26.05553677295832316 0 1 0 0 0 10 forward_v I I I I #
loop $-1 -1 $-1 $-1 $194 $147 #
coedge $-1 -1 $-1 $248 $248 $193 $249 reversed $190 $-1 #
edge $320 -1 $-1 $321 0 $321 6.283185307179586232 $193 $322 forward @7 unknown #
DXID-attrib $-1 -1 $-1 $-1 $195 @10 ASM ENTITY @36 167ffbf6-4271-4377-84ba-9d99d484290f #
vertex $-1 -1 $-1 $195 $323 #
ellipse-curve $-1 -1 $-1 -60.6842422619712778 92.19233845410086303 26.05553677295833381 -1.586304803692749488e-16 1 -2.227963800170432436e-16 8.049494600666836419 1.528077118323664856e-16 -5.045357933173372444 1 I I #
point $-1 -1 $-1 -68.73373686263811067 87.19233845410086303 31.10089470613170448 #
DXID-attrib $-1 -1 $-1 $-1 $202 @10 ASM ENTITY @36 c2780f81-cd47-4136-8a7a-3cdf8ca24f78 #
face $324 -1 $-1 $325 $326 $13 $-1 $327 forward single #
loop $-1 -1 $-1 $-1 $259 $202 #
plane-surface $-1 -1 $-1 -60.93348721296056425 79.19233845410083461 14.05812551242355823 0.02077041258244112856 -1.534794792496104419e-38 0.999784271711230188 9.997842717112302324 1.415340472798810739e-30 -0.2077041258244112787 forward_v I I I I #
coedge $-1 -1 $-1 $328 $328 $206 $261 reversed $204 $-1 #
coedge $-1 -1 $-1 $259 $259 $205 $260 forward $256 $-1 #
edge $329 -1 $-1 $330 -6.283185307179586232 $330 -0 $205 $331 forward @7 unknown #
edge $332 -1 $-1 $264 -1.570796326794896558 $265 1.570796326794896558 $206 $333 forward @7 unknown #
coedge $-1 -1 $-1 $207 $207 $328 $334 forward $203 $-1 #
coedge $-1 -1 $-1 $210 $210 $210 $208 reversed $167 $-1 #
vertex $-1 -1 $-1 $208 $335 #
vertex $-1 -1 $-1 $208 $336 #
straight-curve $-1 -1 $-1 -60.87117597521324086 39.19233845410083461 17.05747832755725213 -1.415035140632755502e-30 10 2.939735901102798704e-32 I I #
loop $-1 -1 $-1 $-1 $337 $168 #
coedge $-1 -1 $-1 $268 $268 $338 $339 reversed $209 $-1 #
DXID-attrib $-1 -1 $-1 $-1 $212 @10 ASM ENTITY @36 71033361-a4fa-441a-8302-61bdc8c5bf21 #
face $340 -1 $-1 $-1 $341 $13 $-1 $342 reversed single #
loop $-1 -1 $-1 $343 $344 $212 #
plane-surface $-1 -1 $-1 -60.68424226197127069 129.1923384541008204 26.05553677295832316 -1.415035140632755502e-31 1 2.939735901102798636e-33 0.2077041258244112787 -1.534794792496104419e-37 9.997842717112302324 forward_v I I I I #
DXID-attrib $-1 -1 $-1 $-1 $215 @10 ASM ENTITY @36 733d5e4c-a7ca-4973-a57a-022f23bbc5b4 #
face $345 -1 $-1 $346 $347 $15 $-1 $348 reversed single #
loop $-1 -1 $-1 $-1 $349 $215 #
plane-surface $-1 -1 $-1 -57.1842422619712849 87.1923384541008204 14.05553677295831605 1 0 -5.081129667887805849e-15 5.081129667887805691e-14 0 10 forward_v I I I I #
coedge $-1 -1 $-1 $288 $350 $295 $351 reversed $216 $-1 #
coedge $-1 -1 $-1 $218 $295 $219 $281 reversed $171 $-1 #
edge $-1 -1 $-1 $232 -0.5675882184166552991 $285 -3.552713678800501003e-17 $228 $352 forward @7 unknown #
coedge $-1 -1 $-1 $220 $219 $350 $353 forward $131 $-1 #
edge $354 -1 $-1 $285 0 $355 4.5 $278 $356 forward @7 unknown #
coedge $-1 -1 $-1 $291 $357 $220 $283 forward $292 $-1 #
edge $-1 -1 $-1 $286 -11.80000000000000071 $358 -7.300000000000000711 $282 $359 forward @7 unknown #
coedge $-1 -1 $-1 $360 $221 $357 $361 forward $230 $-1 #
vertex $-1 -1 $-1 $222 $362 #
vertex $-1 -1 $-1 $222 $363 #
straight-curve $-1 -1 $-1 -64.18424226197126359 87.1923384541008204 32.0555367729583196 1.226479575007404801e-14 0 -10 I I #
coedge $-1 -1 $-1 $364 $277 $223 $289 reversed $216 $-1 #
edge $365 -1 $-1 $293 -0.3168239133672179353 $297 0 $223 $366 forward @7 unknown #
coedge $-1 -1 $-1 $367 $224 $229 $300 reversed $292 $-1 #
coedge $-1 -1 $-1 $224 $282 $364 $368 forward $292 $-1 #
loop $-1 -1 $-1 $-1 $282 $369 #
vertex $-1 -1 $-1 $225 $370 #
straight-curve $-1 -1 $-1 -57.18424226197127069 -30.80766154589918315 34.88729763928617444 0 10 0 I I #
coedge $-1 -1 $-1 $278 $226 $277 $351 forward $171 $-1 #
DXID-attrib $-1 -1 $-1 $-1 $227 @10 ASM ENTITY @36 8ccbdab1-817d-438e-91ba-8baa68120f37 #
vertex $-1 -1 $-1 $289 $371 #
straight-curve $-1 -1 $-1 -57.18424226197127069 87.1923384541008204 38.05553677295834802 0 -10 0 I I #
coedge $-1 -1 $-1 $229 $372 $349 $373 forward $230 $-1 #
edge $374 -1 $-1 $375 -4.335078948024940537 $231 -1.948106359154645473 $290 $376 forward @7 unknown #
point $-1 -1 $-1 -57.18424226197127069 87.1923384541008204 34.88729763928617444 #
point $-1 -1 $-1 -57.18424226197127069 87.1923384541008204 38.05553677295834802 #
coedge $-1 -1 $-1 $303 $303 $377 $378 forward $234 $-1 #
coedge $-1 -1 $-1 $304 $304 $235 $305 reversed $379 $-1 #
edge $380 -1 $-1 $381 -3.141592653589793116 $381 3.141592653589793116 $235 $382 forward @7 unknown #
loop $-1 -1 $-1 $-1 $236 $383 #
DXID-attrib $-1 -1 $-1 $-1 $237 @10 ASM ENTITY @36 39857e97-58f1-4aa6-831c-43b765d5ee32 #
vertex $-1 -1 $-1 $237 $384 #
ellipse-curve $-1 -1 $-1 -60.68424226197127069 -30.80766154589918315 46.0555367729583196 0 -1 0 3 0 0 1 I I #
face $385 -1 $-1 $242 $386 $15 $-1 $387 forward single #
point $-1 -1 $-1 -43.6842422619712778 -30.80766154589918315 26.05553677295832316 #
DXID-attrib $-1 -1 $-1 $-1 $242 @10 ASM ENTITY @36 326d0565-3d59-48e3-ab7e-df58f02c44b7 #
face $388 -1 $-1 $389 $390 $15 $-1 $61 forward single #
loop $-1 -1 $-1 $182 $391 $242 #
cone-surface $-1 -1 $-1 -60.68424226197127069 -30.80766154589918315 26.05553677295832316 0 -1 0 -25 0 0 1 I I 0 1 25 forward I I I I #
DXID-attrib $-1 -1 $-1 $-1 $245 @10 ASM ENTITY @36 305acd15-be19-445d-beff-42caf3094d46 #
face $392 -1 $-1 $383 $393 $15 $-1 $394 forward single #
loop $-1 -1 $-1 $395 $396 $245 #
cone-surface $-1 -1 $-1 -80.68424226197126359 -30.80766154589918315 26.05553677295832316 0 -1 0 3.000000000000000444 0 0 1 I I 0 -1 3.000000000000000444 forward I I I I #
DXID-attrib $-1 -1 $-1 $-1 $249 @10 ASM ENTITY @36 872c47fc-2025-4ce7-8556-bfb1e399a690 #
vertex $-1 -1 $-1 $249 $397 #
ellipse-curve $-1 -1 $-1 -60.6842422619712778 92.19233845410086303 26.05553677295833381 1.586304803692749488e-16 -1 2.227963800170432436e-16 -13.55704353796519612 -2.573603567703014339e-16 8.497444940081468445 1 I I #
point $-1 -1 $-1 -68.73373686263811067 92.19233845410086303 31.10089470613170448 #
DXID-attrib $-1 -1 $-1 $-1 $255 @10 ASM ENTITY @36 27800839-d3d8-4cdb-baa9-d60e4ac9feb5 #
face $398 -1 $-1 $168 $399 $13 $-1 $400 forward single #
loop $-1 -1 $-1 $401 $402 $255 #
cone-surface $-1 -1 $-1 -60.68424226197127069 129.1923384541008204 26.05553677295832316 -1.415035140632755502e-31 1 2.939735901102798636e-33 4.499029222700536401 6.369032127594649203e-31 -0.09346685662098508374 1 I I 0 1 4.500000000000000888 forward I I I I #
coedge $-1 -1 $-1 $258 $258 $262 $334 reversed $204 $-1 #
DXID-attrib $-1 -1 $-1 $-1 $260 @10 ASM ENTITY @36 4d065259-5c14-4d4a-98ff-9b91b1626a5d #
vertex $-1 -1 $-1 $260 $403 #
ellipse-curve $-1 -1 $-1 -60.93348721296056425 79.19233845410083461 14.05812551242355823 -0.02077041258244112856 1.534794792496104419e-38 -0.999784271711230188 3.249298883061500831 4.599856536596139282e-31 -0.06750384089293373635 1 I I #
DXID-attrib $-1 -1 $-1 $-1 $261 @10 ASM ENTITY @36 4e8c7b2a-a920-4ba2-934e-f1f5efd5603b #
ellipse-curve $-1 -1 $-1 -60.87117597521324086 79.19233845410083461 17.05747832755725213 0.02077041258244112856 -1.534794792496104419e-38 0.999784271711230188 3.249298883061500831 4.599856536596139282e-31 -0.06750384089293373635 1 I I #
edge $404 -1 $-1 $265 1.570796326794896558 $264 4.712388980384689674 $262 $333 forward @7 unknown #
point $-1 -1 $-1 -60.87117597521324086 75.94233845410083461 17.05747832755725213 #
point $-1 -1 $-1 -60.87117597521324086 82.44233845410083461 17.05747832755725213 #
coedge $-1 -1 $-1 $337 $337 $405 $406 forward $267 $-1 #
coedge $-1 -1 $-1 $338 $338 $268 $339 forward $343 $-1 #
edge $407 -1 $-1 $408 0 $408 6.283185307179586232 $268 $409 forward @7 unknown #
DXID-attrib $-1 -1 $-1 $-1 $270 @10 ASM ENTITY @36 610aa7e1-f204-4321-9207-81e786840dba #
loop $-1 -1 $-1 $-1 $405 $270 #
plane-surface $-1 -1 $-1 -60.68424226197127069 39.19233845410083461 26.05553677295832316 -1.415035140632755502e-31 1 2.939735901102798636e-33 0.2077041258244112787 -1.534794792496104419e-37 9.997842717112302324 forward_v I I I I #
loop $-1 -1 $-1 $-1 $338 $212 #
coedge $-1 -1 $-1 $344 $344 $410 $411 forward $271 $-1 #
DXID-attrib $-1 -1 $-1 $-1 $274 @10 ASM ENTITY @36 61ddaeaf-5162-4149-8d05-46b56b4e51ee #
face $412 -1 $-1 $413 $414 $15 $-1 $415 reversed single #
loop $-1 -1 $-1 $-1 $416 $274 #
cone-surface $-1 -1 $-1 -60.68424226197127069 87.1923384541008204 26.05553677295832316 0 -1 0 3.499999999999983569 0 -12.00000000000000355 1 I I 0 1 12.5 forward I I I I #
coedge $-1 -1 $-1 $417 $418 $299 $373 reversed $275 $-1 #
coedge $-1 -1 $-1 $277 $364 $280 $353 reversed $216 $-1 #
edge $419 -1 $-1 $297 -0.5675882184166552991 $355 -7.105427357601000774e-17 $295 $420 forward @7 unknown #
ellipse-curve $-1 -1 $-1 -60.68424226197127069 87.1923384541008204 26.05553677295832316 -0 -1 -0 -3.500000000000005329 0 12 1 I I #
edge $421 -1 $-1 $355 -0.3168239133672150487 $358 -0 $280 $422 forward @7 unknown #
DXID-attrib $-1 -1 $-1 $-1 $281 @10 ASM ENTITY @36 059a3ad2-a184-4111-8172-a1f0418b8bb5 #
vertex $-1 -1 $-1 $281 $423 #
straight-curve $-1 -1 $-1 -64.1842422619712778 87.1923384541008204 38.0555367729583196 0 -10 0 I I #
coedge $-1 -1 $-1 $282 $424 $284 $361 reversed $292 $-1 #
vertex $-1 -1 $-1 $353 $425 #
straight-curve $-1 -1 $-1 -64.1842422619712778 -30.80766154589918315 34.88729763928617444 0 -10 0 I I #
coedge $-1 -1 $-1 $372 $284 $426 $427 forward $230 $-1 #
edge $428 -1 $-1 $286 -1.193486294435147199 $429 1.193486294435147421 $357 $376 forward @7 unknown #
point $-1 -1 $-1 -64.1842422619712778 87.1923384541008204 38.0555367729583196 #
point $-1 -1 $-1 -64.1842422619712778 87.1923384541008204 34.88729763928617444 #
coedge $-1 -1 $-1 $350 $288 $291 $368 reversed $216 $-1 #
DXID-attrib $-1 -1 $-1 $-1 $289 @10 ASM ENTITY @36 8d5306b6-7997-44cd-9c89-38d0b24a6d15 #
straight-curve $-1 -1 $-1 -57.18424226197127069 42.1923384541008204 38.05553677295834802 0 0 10 I I #
coedge $-1 -1 $-1 $430 $290 $418 $431 forward $292 $-1 #
edge $-1 -1 $-1 $358 1.193486294435147199 $293 1.948106359154645473 $291 $432 forward @7 unknown #
face $433 -1 $-1 $186 $434 $15 $-1 $435 forward single #
point $-1 -1 $-1 -57.18424226197127069 42.1923384541008204 34.88729763928617444 #
point $-1 -1 $-1 -57.18424226197127069 42.1923384541008204 38.05553677295834802 #
coedge $-1 -1 $-1 $299 $360 $416 $436 forward $230 $-1 #
edge $-1 -1 $-1 $437 -0.5999999999999994227 $375 -0.2831760866327834858 $299 $438 forward @7 unknown #
DXID-attrib $-1 -1 $-1 $-1 $300 @10 ASM ENTITY @36 c677d3c9-450a-463a-8da3-30dec80dffbb #
vertex $-1 -1 $-1 $373 $439 #
ellipse-curve $-1 -1 $-1 -60.68424226197127069 87.1923384541008204 26.05553677295832316 0 -1 0 -9.5 -0 -0 1 I I #
coedge $-1 -1 $-1 $377 $377 $303 $378 reversed $395 $-1 #
edge $440 -1 $-1 $441 -3.141592653589793116 $441 3.141592653589793116 $303 $442 forward @7 unknown #
loop $-1 -1 $-1 $-1 $304 $317 #
DXID-attrib $-1 -1 $-1 $-1 $305 @10 ASM ENTITY @36 f68133d8-ab20-43ca-84c5-6bb363e08b3f #
vertex $-1 -1 $-1 $305 $443 #
ellipse-curve $-1 -1 $-1 -60.68424226197127069 -30.80766154589918315 6.055536772958323155 0 -1 0 3.000000000000000888 0 0 1 I I #
face $444 -1 $-1 $310 $445 $15 $-1 $446 forward single #
point $-1 -1 $-1 -63.68424226197127069 -30.80766154589918315 46.0555367729583196 #
DXID-attrib $-1 -1 $-1 $-1 $310 @10 ASM ENTITY @36 0adbcda4-764f-4de8-802e-82c56d030b56 #
loop $-1 -1 $-1 $238 $447 $310 #
cone-surface $-1 -1 $-1 -40.68424226197127069 -30.80766154589918315 26.05553677295832316 0 -1 0 3.000000000000001776 0 0 1 I I 0 -1 3.000000000000001776 forward I I I I #
DXID-attrib $-1 -1 $-1 $-1 $313 @10 ASM ENTITY @36 bde69285-580a-4c70-a5a9-b658cbbe1901 #
face $448 -1 $-1 $-1 $449 $15 $-1 $450 reversed single #
loop $-1 -1 $-1 $-1 $451 $313 #
coedge $-1 -1 $-1 $391 $391 $452 $453 reversed $314 $-1 #
DXID-attrib $-1 -1 $-1 $-1 $317 @10 ASM ENTITY @36 7e0ce331-ac30-47e8-b37a-e8de9b20b66c #
loop $-1 -1 $-1 $379 $454 $317 #
cone-surface $-1 -1 $-1 -60.68424226197127069 -30.80766154589918315 6.055536772958323155 0 -1 0 3.000000000000000888 0 0 1 I I 0 -1 3.000000000000000888 forward I I I I #
loop $-1 -1 $-1 $-1 $377 $245 #
coedge $-1 -1 $-1 $396 $396 $455 $456 reversed $318 $-1 #
point $-1 -1 $-1 -74.24128579993647747 92.19233845410086303 34.55298171303979871 #
DXID-attrib $-1 -1 $-1 $-1 $325 @10 ASM ENTITY @36 a542d3d2-a84b-4971-bee2-d38babf7aed4 #
loop $-1 -1 $-1 $-1 $457 $325 #
plane-surface $-1 -1 $-1 -60.68424226197127069 151.1923384541008204 26.05553677295832316 -1.415035140632755502e-31 1 2.939735901102798636e-33 0.2077041258244112787 -1.534794792496104419e-37 9.997842717112302324 forward_v I I I I #
loop $-1 -1 $-1 $-1 $410 $255 #
coedge $-1 -1 $-1 $402 $402 $457 $458 reversed $326 $-1 #
point $-1 -1 $-1 -57.6841883298990652 79.19233845410083461 13.99062167153062575 #
DXID-attrib $-1 -1 $-1 $-1 $334 @10 ASM ENTITY @36 aa0b5f04-1757-4790-972b-ce730c373de5 #
coedge $-1 -1 $-1 $405 $405 $337 $406 reversed $341 $-1 #
edge $459 -1 $-1 $460 0 $460 6.283185307179586232 $337 $461 forward @7 unknown #
DXID-attrib $-1 -1 $-1 $-1 $339 @10 ASM ENTITY @36 7a48fc16-5c6b-4b90-ace1-322cce33d84c #
vertex $-1 -1 $-1 $339 $462 #
ellipse-curve $-1 -1 $-1 -60.68424226197127069 129.1923384541008204 26.05553677295832316 -1.415035140632755502e-31 1 2.939735901102798636e-33 -8.998058445401071026 -1.273806425518929665e-30 0.1869337132419701675 1 I I #
coedge $-1 -1 $-1 $410 $410 $344 $411 reversed $401 $-1 #
edge $-1 -1 $-1 $463 0 $463 6.283185307179586232 $344 $464 forward @7 unknown #
DXID-attrib $-1 -1 $-1 $-1 $346 @10 ASM ENTITY @36 d762cdad-56a9-410b-aeec-96e8269097e9 #
face $465 -1 $-1 $369 $466 $15 $-1 $467 forward single #
loop $-1 -1 $-1 $-1 $426 $346 #
plane-surface $-1 -1 $-1 -64.1842422619712778 87.1923384541008204 17.22377590663047542 -1 0 5.781975139320633994e-15 -5.781975139320634309e-14 -0 -10 forward_v I I I I #
coedge $-1 -1 $-1 $468 $469 $372 $436 reversed $347 $-1 #
coedge $-1 -1 $-1 $470 $349 $469 $471 forward $275 $-1 #
coedge $-1 -1 $-1 $349 $470 $367 $431 reversed $275 $-1 #
DXID-attrib $-1 -1 $-1 $-1 $351 @10 ASM ENTITY @36 b1b862aa-58a9-4eb9-ba80-16f55bac4f82 #
ellipse-curve $-1 -1 $-1 -60.68424226197127069 42.1923384541008204 26.05553677295832316 0 -1 0 -3.500000000000005329 0 12 1 I I #
DXID-attrib $-1 -1 $-1 $-1 $353 @10 ASM ENTITY @36 c176c5dd-47f8-42f1-8a8f-85b877c3bb11 #
straight-curve $-1 -1 $-1 -64.1842422619712778 42.1923384541008204 34.88729763928617444 1.226479575007404801e-14 0 -10 I I #
point $-1 -1 $-1 -64.1842422619712778 42.1923384541008204 38.0555367729583196 #
coedge $-1 -1 $-1 $357 $430 $472 $473 forward $292 $-1 #
point $-1 -1 $-1 -64.1842422619712778 42.1923384541008204 34.88729763928617444 #
coedge $-1 -1 $-1 $472 $474 $360 $427 reversed $414 $-1 #
edge $-1 -1 $-1 $429 0.4415880433163933971 $475 0.7584119566836078352 $360 $476 forward @7 unknown #
DXID-attrib $-1 -1 $-1 $-1 $361 @10 ASM ENTITY @36 c6105ebe-4a04-4317-821c-a48ed7578a18 #
vertex $-1 -1 $-1 $427 $477 #
coedge $-1 -1 $-1 $424 $367 $478 $479 forward $292 $-1 #
edge $-1 -1 $-1 $375 -11.80000000000000071 $480 -7.300000000000000711 $367 $481 forward @7 unknown #
ellipse-curve $-1 -1 $-1 -60.68424226197127069 42.1923384541008204 26.05553677295832316 0 1 0 -9.5 0 0 1 I I #
DXID-attrib $-1 -1 $-1 $-1 $369 @10 ASM ENTITY @36 7ed461eb-8fa2-4ea8-8680-3754955b8358 #
loop $-1 -1 $-1 $292 $482 $369 #
cone-surface $-1 -1 $-1 -60.68424226197127069 -30.80766154589918315 26.05553677295832316 0 1 0 -9.5 0 0 1 I I 0 -1 9.5 forward I I I I #
edge $-1 -1 $-1 $475 -0.5675882184166558542 $437 0 $372 $483 forward @7 unknown #
vertex $-1 -1 $-1 $373 $484 #
straight-curve $-1 -1 $-1 -57.18424226197125648 87.1923384541008204 20.0555367729583125 5.081129667887805691e-14 0 10 I I #
point $-1 -1 $-1 -57.18424226197127069 87.1923384541008204 17.22377590663047542 #
DXID-attrib $-1 -1 $-1 $-1 $378 @10 ASM ENTITY @36 8c892387-b8b9-47be-a644-e3dfe467a68a #
vertex $-1 -1 $-1 $378 $485 #
ellipse-curve $-1 -1 $-1 -80.68424226197126359 -30.80766154589918315 26.05553677295832316 0 -1 0 3.000000000000000444 0 0 1 I I #
point $-1 -1 $-1 -63.68424226197127069 -30.80766154589918315 6.055536772958323155 #
DXID-attrib $-1 -1 $-1 $-1 $383 @10 ASM ENTITY @36 5582618f-18e0-4faf-ba5c-b9641224322c #
loop $-1 -1 $-1 $306 $486 $383 #
cone-surface $-1 -1 $-1 -60.68424226197127069 -30.80766154589918315 46.0555367729583196 0 -1 0 3 0 0 1 I I 0 -1 3 forward I I I I #
coedge $-1 -1 $-1 $447 $447 $487 $488 reversed $386 $-1 #
DXID-attrib $-1 -1 $-1 $-1 $389 @10 ASM ENTITY @36 2c5b5e83-e39d-4187-9b74-d9dafa5e7c69 #
loop $-1 -1 $-1 $489 $452 $389 #
plane-surface $-1 -1 $-1 -60.68424226197127069 -40.8076615458991796 26.05553677295832316 0 1 0 0 0 10 forward_v I I I I #
coedge $-1 -1 $-1 $451 $451 $482 $490 forward $390 $-1 #
coedge $-1 -1 $-1 $452 $452 $391 $453 forward $449 $-1 #
edge $491 -1 $-1 $492 -6.283185307179586232 $492 -0 $391 $493 forward @7 unknown #
coedge $-1 -1 $-1 $454 $454 $494 $495 reversed $393 $-1 #
coedge $-1 -1 $-1 $455 $455 $396 $456 forward $496 $-1 #
edge $497 -1 $-1 $498 -3.141592653589793116 $498 3.141592653589793116 $396 $499 forward @7 unknown #
coedge $-1 -1 $-1 $457 $457 $402 $458 forward $399 $-1 #
edge $500 -1 $-1 $501 0 $501 6.283185307179586232 $402 $502 forward @7 unknown #
DXID-attrib $-1 -1 $-1 $-1 $406 @10 ASM ENTITY @36 d8d896b4-1e30-4751-83fc-b2c623552f17 #
vertex $-1 -1 $-1 $406 $503 #
ellipse-curve $-1 -1 $-1 -60.68424226197127069 39.19233845410083461 26.05553677295832316 -1.415035140632755502e-31 1 2.939735901102798636e-33 -8.998058445401071026 -1.273806425518929665e-30 0.1869337132419701675 1 I I #
point $-1 -1 $-1 -69.68230070737234882 129.1923384541008204 26.24247048620029332 #
vertex $-1 -1 $-1 $411 $504 #
ellipse-curve $-1 -1 $-1 -60.68424226197127069 129.1923384541008204 26.05553677295832316 1.415035140632755502e-31 -1 -2.939735901102798636e-33 4.499029222700536401 6.369032127594649203e-31 -0.09346685662098508374 1 I I #
DXID-attrib $-1 -1 $-1 $-1 $413 @10 ASM ENTITY @36 8a86d1c3-1314-4dbc-9dcc-7c0fed4680fd #
loop $-1 -1 $-1 $-1 $478 $413 #
plane-surface $-1 -1 $-1 -60.6842422619712778 42.1923384541008204 15.38965633979439929 0 1 0 0 0 10 forward_v I I I I #
coedge $-1 -1 $-1 $505 $416 $474 $506 forward $347 $-1 #
coedge $-1 -1 $-1 $416 $505 $417 $471 reversed $347 $-1 #
coedge $-1 -1 $-1 $418 $417 $507 $508 forward $275 $-1 #
edge $509 -1 $-1 $437 0 $510 4.5 $469 $511 forward @7 unknown #
coedge $-1 -1 $-1 $512 $426 $424 $473 reversed $414 $-1 #
edge $-1 -1 $-1 $513 7.300000000000000711 $429 11.80000000000000071 $424 $514 forward @7 unknown #
coedge $-1 -1 $-1 $426 $512 $468 $506 reversed $414 $-1 #
vertex $-1 -1 $-1 $436 $515 #
straight-curve $-1 -1 $-1 -64.18424226197124938 87.1923384541008204 21.63965633979440994 -5.781975139320634309e-14 0 -10 I I #
point $-1 -1 $-1 -64.1842422619712778 87.1923384541008204 17.22377590663047542 #
coedge $-1 -1 $-1 $507 $516 $430 $479 reversed $466 $-1 #
edge $-1 -1 $-1 $480 -1.948106359154645917 $513 -1.193486294435147421 $430 $517 forward @7 unknown #
vertex $-1 -1 $-1 $508 $518 #
straight-curve $-1 -1 $-1 -57.18424226197127069 -30.80766154589918315 17.22377590663047542 0 -10 0 I I #
coedge $-1 -1 $-1 $482 $482 $451 $490 reversed $434 $-1 #
ellipse-curve $-1 -1 $-1 -60.68424226197127069 87.1923384541008204 26.05553677295832316 -0 -1 -0 3.499999999999983569 0 -12.00000000000000355 1 I I #
point $-1 -1 $-1 -57.1842422619712849 87.1923384541008204 14.05553677295831605 #
point $-1 -1 $-1 -83.68424226197126359 -30.80766154589918315 26.05553677295832316 #
coedge $-1 -1 $-1 $486 $486 $519 $520 reversed $445 $-1 #
coedge $-1 -1 $-1 $487 $487 $447 $488 forward $489 $-1 #
edge $521 -1 $-1 $522 -3.141592653589793116 $522 3.141592653589793116 $447 $523 forward @7 unknown #
loop $-1 -1 $-1 $524 $487 $389 #
edge $-1 -1 $-1 $525 -3.141592653589793116 $525 3.141592653589793116 $451 $526 forward @7 unknown #
DXID-attrib $-1 -1 $-1 $-1 $453 @10 ASM ENTITY @36 ba2666ad-1a02-463a-9208-129eef80ca3a #
vertex $-1 -1 $-1 $453 $527 #
ellipse-curve $-1 -1 $-1 -60.68424226197127069 -40.8076615458991796 26.05553677295832316 0 -1 0 -25 0 0 1 I I #
coedge $-1 -1 $-1 $494 $494 $454 $495 forward $528 $-1 #
edge $529 -1 $-1 $530 -3.141592653589793116 $530 3.141592653589793116 $454 $531 forward @7 unknown #
loop $-1 -1 $-1 $-1 $455 $389 #
DXID-attrib $-1 -1 $-1 $-1 $456 @10 ASM ENTITY @36 e00efac5-6b58-4bba-8eae-2d59931ef9c2 #
vertex $-1 -1 $-1 $456 $532 #
ellipse-curve $-1 -1 $-1 -80.68424226197126359 -40.8076615458991796 26.05553677295832316 0 1 0 3.000000000000000444 0 0 1 I I #
DXID-attrib $-1 -1 $-1 $-1 $458 @10 ASM ENTITY @36 dc6459aa-27c9-4e73-bc9e-dc2ce6ff52ad #
vertex $-1 -1 $-1 $458 $533 #
ellipse-curve $-1 -1 $-1 -60.68424226197127069 151.1923384541008204 26.05553677295832316 -1.415035140632755502e-31 1 2.939735901102798636e-33 4.499029222700536401 6.369032127594649203e-31 -0.09346685662098508374 1 I I #
point $-1 -1 $-1 -69.68230070737234882 39.19233845410083461 26.24247048620029332 #
point $-1 -1 $-1 -56.18521303927073518 129.1923384541008204 25.96206991633733807 #
coedge $-1 -1 $-1 $469 $468 $534 $535 forward $347 $-1 #
edge $536 -1 $-1 $475 0 $537 4.5 $474 $538 forward @7 unknown #
coedge $-1 -1 $-1 $534 $478 $470 $508 reversed $466 $-1 #
edge $539 -1 $-1 $510 -0.3168239133672159369 $480 -0 $470 $540 forward @7 unknown #
DXID-attrib $-1 -1 $-1 $-1 $471 @10 ASM ENTITY @36 030a221d-3705-463f-85a4-6e70f3878027 #
vertex $-1 -1 $-1 $471 $541 #
straight-curve $-1 -1 $-1 -57.1842422619712849 87.1923384541008204 14.05553677295831605 0 -10 0 I I #
coedge $-1 -1 $-1 $474 $472 $516 $542 forward $414 $-1 #
vertex $-1 -1 $-1 $473 $543 #
straight-curve $-1 -1 $-1 -64.1842422619712778 -30.80766154589918315 17.22377590663047542 0 10 0 I I #
point $-1 -1 $-1 -64.18424226197129201 87.1923384541008204 14.05553677295833026 #
coedge $-1 -1 $-1 $478 $534 $512 $542 reversed $466 $-1 #
ellipse-curve $-1 -1 $-1 -60.68424226197127069 42.1923384541008204 26.05553677295832316 0 1 0 -9.5 0 0 1 I I #
point $-1 -1 $-1 -57.18424226197127069 42.1923384541008204 17.22377590663047542 #
coedge $-1 -1 $-1 $519 $519 $486 $520 forward $524 $-1 #
edge $544 -1 $-1 $545 -3.141592653589793116 $545 3.141592653589793116 $486 $546 forward @7 unknown #
DXID-attrib $-1 -1 $-1 $-1 $488 @10 ASM ENTITY @36 ebf838dd-5d10-4383-b135-7f2200618c51 #
vertex $-1 -1 $-1 $488 $547 #
ellipse-curve $-1 -1 $-1 -40.68424226197127069 -40.8076615458991796 26.05553677295832316 0 1 0 3.000000000000001776 0 0 1 I I #
loop $-1 -1 $-1 $528 $519 $389 #
vertex $-1 -1 $-1 $490 $548 #
ellipse-curve $-1 -1 $-1 -60.68424226197127069 -30.80766154589918315 26.05553677295832316 0 1 0 -9.5 0 0 1 I I #
point $-1 -1 $-1 -85.68424226197126359 -40.8076615458991796 26.05553677295832316 #
loop $-1 -1 $-1 $496 $494 $389 #
DXID-attrib $-1 -1 $-1 $-1 $495 @10 ASM ENTITY @36 7d420abf-8746-4cc2-bc89-de681d921c48 #
vertex $-1 -1 $-1 $495 $549 #
ellipse-curve $-1 -1 $-1 -60.68424226197127069 -40.8076615458991796 6.055536772958323155 0 1 0 3.000000000000000888 0 0 1 I I #
point $-1 -1 $-1 -83.68424226197126359 -40.8076615458991796 26.05553677295832316 #
point $-1 -1 $-1 -56.18521303927073518 151.1923384541008204 25.96206991633733807 #
coedge $-1 -1 $-1 $516 $507 $505 $535 reversed $466 $-1 #
edge $550 -1 $-1 $537 -0.5675882184166558542 $510 -0 $505 $551 forward @7 unknown #
DXID-attrib $-1 -1 $-1 $-1 $506 @10 ASM ENTITY @36 97a3c60a-498d-4c91-93b1-113fe595d5d0 #
vertex $-1 -1 $-1 $506 $552 #
straight-curve $-1 -1 $-1 -64.18424226197129201 87.1923384541008204 14.05553677295833026 0 -10 0 I I #
DXID-attrib $-1 -1 $-1 $-1 $508 @10 ASM ENTITY @36 8c9967c0-00d3-44de-a595-08f9a89cd32a #
straight-curve $-1 -1 $-1 -57.18424226197127069 42.1923384541008204 17.22377590663047542 5.081129667887805691e-14 0 10 I I #
point $-1 -1 $-1 -57.1842422619712849 42.1923384541008204 14.05553677295831605 #
edge $553 -1 $-1 $513 -0.3168239133672144936 $537 -0 $512 $554 forward @7 unknown #
point $-1 -1 $-1 -64.1842422619712778 42.1923384541008204 17.22377590663047542 #
DXID-attrib $-1 -1 $-1 $-1 $520 @10 ASM ENTITY @36 a94d8ecf-9ded-42de-835c-b5796c858258 #
vertex $-1 -1 $-1 $520 $555 #
ellipse-curve $-1 -1 $-1 -60.68424226197127069 -40.8076615458991796 46.0555367729583196 0 1 0 3 0 0 1 I I #
point $-1 -1 $-1 -43.6842422619712778 -40.8076615458991796 26.05553677295832316 #
point $-1 -1 $-1 -51.18424226197127069 -30.80766154589918315 26.05553677295832316 #
point $-1 -1 $-1 -63.68424226197127069 -40.8076615458991796 6.055536772958323155 #
DXID-attrib $-1 -1 $-1 $-1 $535 @10 ASM ENTITY @36 8e702b6f-9913-4c94-b6f6-f0e96ac8c041 #
ellipse-curve $-1 -1 $-1 -60.68424226197127069 42.1923384541008204 26.05553677295832316 -0 -1 -0 3.499999999999983569 0 -12.00000000000000355 1 I I #
point $-1 -1 $-1 -64.18424226197129201 42.1923384541008204 14.05553677295833026 #
DXID-attrib $-1 -1 $-1 $-1 $542 @10 ASM ENTITY @36 6657ce9f-82c4-4122-a8e6-b7c7905ba7e3 #
straight-curve $-1 -1 $-1 -64.18424226197129201 42.1923384541008204 14.05553677295833026 -5.781975139320634309e-14 -0 -10 I I #
point $-1 -1 $-1 -63.68424226197127069 -40.8076615458991796 46.0555367729583196 #
End-of-ACIS-data 